<?xml version="1.0" standalone="no"?>
<!DOCTYPE svg PUBLIC "-//W3C//DTD SVG 20010904//EN"
 "http://www.w3.org/TR/2001/REC-SVG-20010904/DTD/svg10.dtd">
<svg version="1.0" xmlns="http://www.w3.org/2000/svg"
 width="553.000000pt" height="141.000000pt" viewBox="0 0 553.000000 141.000000"
 preserveAspectRatio="xMidYMid meet">

<g transform="translate(0.000000,141.000000) scale(0.100000,-0.100000)"
fill="#000000" stroke="none">
<path d="M4643 1312 c-6 -15 -19 -64 -29 -109 -18 -80 -36 -105 -57 -84 -6 6
-21 52 -33 102 -25 99 -49 145 -39 74 14 -99 35 -322 35 -376 0 -51 -14 -112
-80 -359 -15 -55 -60 -209 -66 -225 -5 -11 1 -15 20 -15 21 0 26 5 26 25 0 14
9 58 21 98 11 39 29 104 39 142 31 121 46 145 91 145 31 0 66 -37 75 -79 7
-37 20 -83 49 -182 14 -48 25 -102 25 -121 0 -33 0 -33 41 -30 37 4 39 5 21
18 -17 12 -32 51 -62 164 -6 19 -26 94 -46 165 -62 226 -62 225 -53 295 16
136 39 373 37 376 -2 2 -9 -9 -15 -24z m-45 -525 c5 -25 -28 -34 -44 -12 -7
10 -11 22 -8 27 10 15 49 4 52 -15z"/>
<path d="M340 1158 c-16 -24 -43 -61 -59 -83 -16 -22 -35 -53 -42 -70 -8 -16
-34 -57 -59 -91 -26 -33 -72 -99 -103 -146 -52 -78 -57 -90 -57 -140 0 -60 7
-72 111 -201 27 -34 64 -87 81 -117 17 -30 58 -97 92 -148 l61 -93 40 3 40 3
1 270 c0 149 4 287 8 306 8 45 -8 62 -50 50 l-29 -7 0 -222 c0 -140 -4 -223
-10 -224 -5 -2 -37 38 -70 88 -33 49 -76 110 -96 135 -20 24 -53 72 -74 107
-34 56 -36 64 -23 80 8 9 25 37 37 61 22 44 273 385 291 396 22 13 10 54 -20
70 -16 8 -31 15 -34 15 -3 0 -19 -19 -36 -42z"/>
<path d="M1275 1186 c-17 -13 -18 -21 -8 -137 11 -128 10 -461 -2 -771 l-8
-177 26 -6 c30 -8 63 1 70 18 2 7 1 91 -4 187 -4 96 -9 294 -9 439 -1 231 1
266 15 280 15 15 20 12 54 -25 20 -23 50 -61 66 -85 17 -24 44 -63 62 -87 18
-23 48 -75 68 -115 l36 -72 -1 -268 0 -267 24 -6 c14 -3 33 -3 44 0 17 6 19
14 16 69 -9 139 -23 614 -19 642 2 17 5 109 7 205 l3 175 -40 0 -40 0 0 -150
c0 -82 -4 -155 -8 -162 -11 -18 -34 -5 -56 31 -11 17 -32 45 -46 61 -14 17
-36 46 -47 65 -12 19 -46 65 -76 103 -57 71 -86 83 -127 53z"/>
<path d="M5060 1185 c-10 -12 -11 -46 -6 -138 3 -67 5 -239 4 -382 -1 -143 -2
-330 -2 -415 l-1 -155 40 0 40 0 -1 255 c-1 140 -2 318 -2 395 -1 174 5 276
16 287 18 18 171 -184 232 -308 l50 -102 -5 -143 c-2 -79 -4 -151 -4 -159 0
-8 2 -62 3 -120 2 -101 3 -105 25 -108 13 -2 33 -1 46 2 21 5 22 9 13 48 -8
36 -13 871 -5 1003 2 39 1 40 -31 43 -61 6 -65 -6 -57 -155 7 -137 3 -173 -19
-173 -7 0 -44 44 -81 98 -38 53 -84 115 -102 138 -18 23 -33 44 -33 48 0 4
-11 18 -25 31 -28 28 -76 33 -95 10z"/>
<path d="M753 1182 l-41 -3 -1 -412 c0 -227 -3 -469 -7 -539 -4 -73 -3 -128 2
-129 42 -5 333 -6 342 -1 19 13 25 57 7 72 -12 10 -27 10 -72 1 -70 -14 -170
-14 -178 -1 -14 22 -27 366 -16 407 8 28 8 28 98 29 111 1 123 5 123 43 0 37
-30 44 -118 29 -47 -7 -71 -7 -89 1 l-24 11 5 143 c9 202 13 264 21 276 7 13
125 14 176 2 21 -5 41 -6 46 -2 15 10 21 47 11 65 -8 14 -26 16 -126 14 -64
-2 -136 -4 -159 -6z"/>
<path d="M3200 1181 l-115 -6 -1 -475 c0 -261 -4 -503 -8 -537 -5 -35 -4 -64
1 -64 32 -5 332 -7 346 -2 14 4 17 13 15 41 -3 34 -5 37 -33 35 -16 -1 -71 -5
-120 -9 -76 -6 -92 -4 -103 9 -21 25 -34 347 -17 414 5 22 10 23 105 23 98 0
101 1 112 25 9 21 9 29 -3 40 -11 12 -27 12 -84 4 -38 -5 -82 -7 -97 -3 -45 9
-52 34 -43 168 4 67 8 151 10 187 1 37 6 72 10 79 6 9 39 11 124 9 l116 -4 0
35 0 35 -50 1 c-27 0 -102 -2 -165 -5z"/>
<path d="M1906 1164 c-3 -8 -6 -27 -6 -40 0 -21 5 -24 35 -24 18 0 57 5 86 11
77 17 80 11 89 -168 4 -81 6 -150 5 -153 -2 -3 -6 -127 -9 -275 -3 -149 -8
-298 -12 -332 -8 -73 3 -93 50 -93 53 0 58 8 46 86 -5 38 -10 259 -10 491 0
482 -4 461 79 448 25 -3 63 -9 84 -12 l38 -5 -3 38 -3 39 -231 3 c-205 2 -232
1 -238 -14z"/>
<path d="M2553 1164 c-3 -8 -2 -39 3 -67 9 -56 12 -649 4 -867 l-5 -135 140
-3 c77 -2 155 0 173 3 31 6 33 8 30 43 l-3 37 -45 -3 c-25 -1 -80 -5 -122 -8
l-77 -5 -7 27 c-10 40 -10 642 0 832 l8 162 -46 0 c-33 0 -48 -5 -53 -16z"/>
<path d="M3626 1165 c-3 -9 -1 -71 4 -139 6 -74 8 -263 4 -472 -4 -192 -8
-374 -8 -404 -1 -50 1 -55 23 -58 12 -2 34 -1 47 2 24 6 25 8 18 84 -8 96 -7
783 2 791 9 9 58 -54 93 -119 17 -32 38 -61 47 -64 18 -7 54 10 54 25 0 16 94
157 108 164 8 3 18 3 22 0 8 -5 5 -700 -2 -835 l-3 -45 49 -3 49 -3 -7 83 c-5
60 -18 877 -16 996 0 7 -14 12 -35 12 -32 0 -37 -4 -65 -61 -37 -72 -114 -194
-129 -204 -13 -7 -50 30 -71 72 -8 15 -37 65 -63 110 -45 78 -50 83 -82 83
-20 0 -35 -6 -39 -15z"/>
<path d="M4681 274 c0 -11 3 -14 6 -6 3 7 2 16 -1 19 -3 4 -6 -2 -5 -13z"/>
<path d="M4455 149 c-4 -6 -5 -12 -2 -15 2 -3 7 2 10 11 7 17 1 20 -8 4z"/>
</g>
</svg>
