<?xml version="1.0" standalone="no"?>
<!DOCTYPE svg PUBLIC "-//W3C//DTD SVG 20010904//EN"
 "http://www.w3.org/TR/2001/REC-SVG-20010904/DTD/svg10.dtd">
<svg version="1.0" xmlns="http://www.w3.org/2000/svg"
 width="212.000000pt" height="234.000000pt" viewBox="0 0 212.000000 234.000000"
 preserveAspectRatio="xMidYMid meet">

<g transform="translate(0.000000,234.000000) scale(0.100000,-0.100000)"
fill="#000000" stroke="none">
<path d="M970 2300 c-350 -33 -674 -281 -829 -633 -131 -300 -140 -644 -23
-942 64 -165 141 -285 251 -395 119 -118 261 -210 394 -254 144 -48 344 -56
509 -22 361 76 682 413 778 818 135 571 -143 1161 -642 1363 -134 55 -295 78
-438 65z m305 -54 c172 -47 313 -127 434 -246 105 -103 169 -191 226 -313 89
-187 121 -352 112 -571 -12 -303 -107 -537 -299 -741 -139 -146 -287 -237
-469 -287 -120 -33 -318 -33 -438 0 -287 78 -538 295 -666 576 -127 280 -140
641 -32 928 131 348 405 591 747 664 85 18 303 12 385 -10z"/>
<path d="M871 1819 c-92 -25 -104 -36 -129 -115 -8 -26 -7 -35 10 -51 19 -20
20 -20 56 -2 43 22 82 25 82 5 0 -8 7 -16 15 -20 8 -3 14 -14 12 -26 -2 -16
13 -27 78 -56 44 -20 89 -36 100 -36 43 1 66 -10 75 -34 13 -32 -8 -83 -45
-112 -19 -15 -23 -22 -12 -22 9 0 25 12 36 27 12 14 23 24 25 22 2 -2 17 -31
33 -63 l30 -59 6 49 c3 28 20 86 37 129 42 106 43 165 6 239 -34 67 -93 123
-138 130 -79 13 -222 11 -277 -5z"/>
<path d="M765 1521 c-42 -9 -39 -35 4 -41 22 -3 36 -12 41 -25 7 -19 7 -19 19
3 10 18 10 27 0 38 -9 11 -8 14 5 14 10 0 14 5 11 10 -7 11 -33 11 -80 1z"/>
<path d="M1002 1456 c-14 -38 -67 -99 -124 -140 l-36 -27 -44 30 -43 30 -17
-22 c-20 -25 -22 -45 -8 -67 7 -11 10 -11 10 -2 0 7 5 10 10 7 13 -8 13 -155
1 -188 -9 -22 -7 -26 15 -31 14 -4 43 -2 65 4 71 19 60 -6 -21 -49 -35 -19
-37 -23 -68 -148 -18 -70 -32 -152 -32 -180 0 -46 3 -53 20 -53 11 0 20 3 21
8 5 81 44 280 65 332 21 52 50 59 84 19 22 -27 28 -29 50 -21 69 27 109 34
138 24 42 -14 54 -3 50 49 -3 49 4 46 -101 33 -41 -5 -46 -4 -41 10 4 11 13
15 26 10 15 -4 19 -2 16 13 -2 12 7 22 29 32 18 8 35 23 39 33 8 26 -22 133
-47 167 -14 20 -23 50 -26 95 -3 36 -9 66 -12 66 -4 0 -13 -15 -19 -34z"/>
<path d="M1398 1023 c-7 -17 -13 -106 -15 -215 l-4 -188 31 0 30 0 0 123 c0
67 5 160 10 207 7 64 7 86 -3 92 -22 14 -37 8 -49 -19z"/>
</g>
</svg>
